<?xml version="1.0" encoding="utf-8"?>
<!-- Generator: Adobe Illustrator 25.4.1, SVG Export Plug-In . SVG Version: 6.00 Build 0)  -->
<svg version="1.1" id="Layer_1" xmlns="http://www.w3.org/2000/svg" xmlns:xlink="http://www.w3.org/1999/xlink" x="0px" y="0px"
	 viewBox="0 0 800 800" style="enable-background:new 0 0 800 800;" xml:space="preserve">
<style type="text/css">
	.st0{fill:#FFCE67;}
	.st1{fill:#F9A916;}
	.st2{fill:#2C2E36;}
	.st3{fill:#231F20;}
	.st4{fill:#424242;}
	.st5{fill:#FBE1BA;}
	.st6{fill:#FFFCE8;}
	.st7{fill:#EDEDEE;}
	.st8{fill:#525760;}
</style>
<path class="st0" d="M779.96,400c0,209.84-170.11,379.96-379.96,379.96C190.15,779.96,20.04,609.85,20.04,400
	C20.04,190.16,190.15,20.04,400,20.04C609.85,20.04,779.96,190.16,779.96,400z"/>
<path class="st1" d="M779.96,400c0,209.84-170.11,379.96-379.96,379.96C190.15,779.96,20.04,609.85,20.04,400
	C20.04,190.16,190.15,20.04,400,20.04C609.85,20.04,779.96,190.16,779.96,400z"/>
<path class="st2" d="M145.35,334.73c0-8.6,6.96-15.57,15.57-15.57h442.39c8.59,0,15.56,6.97,15.56,15.57V637
	c0,8.6-6.97,15.57-15.56,15.57H160.92c-8.6,0-15.57-6.97-15.57-15.57V334.73z"/>
<path class="st3" d="M378.19,393.64c-49.78,0-90.13,40.37-90.13,90.13c0,49.77,40.35,90.13,90.13,90.13
	c49.77,0,90.12-40.35,90.12-90.13C468.32,434.01,427.97,393.64,378.19,393.64z M378.19,561.75c-43.06,0-77.98-34.92-77.98-77.98
	c0-43.06,34.92-77.97,77.98-77.97c43.06,0,77.97,34.91,77.97,77.97C456.17,526.83,421.25,561.75,378.19,561.75z"/>
<path class="st1" d="M289.7,483.77c0,48.8,39.7,88.49,88.5,88.49c48.79,0,88.49-39.7,88.49-88.49c0-48.8-39.69-88.49-88.49-88.49
	C329.4,395.27,289.7,434.97,289.7,483.77z M298.59,483.77c0-43.89,35.71-79.6,79.61-79.6c43.9,0,79.6,35.71,79.6,79.6
	c0,43.89-35.7,79.6-79.6,79.6C334.3,563.37,298.59,527.66,298.59,483.77z"/>
<path class="st4" d="M341.23,439.16c0-3.88,1.55-7.01,4.24-8.57c2.7-1.57,6.19-1.35,9.56,0.6l7,4.04
	c15.58-7.16,31.73-13.46,48.42-18.75c-9.78-4.71-20.69-7.42-32.26-7.42c-35.38,0-65.03,24.73-72.72,57.8
	c11.47-7.68,23.38-14.85,35.75-21.4C341.23,441.54,341.23,439.16,341.23,439.16z"/>
<path class="st3" d="M430.66,488.91c4.91-2.83,4.91-7.47,0-10.29l-29.71-17.16c-4.89-2.84-12.92-7.46-17.82-10.29l-29.72-17.16
	c-4.9-2.83-8.91-0.51-8.91,5.15v34.3c0,5.67,0,14.94,0,20.6v34.31c0,5.66,4.02,7.96,8.91,5.13l29.72-17.14
	c4.9-2.83,12.93-7.47,17.82-10.31L430.66,488.91z"/>
<path class="st1" d="M347.92,434.82c-1.15,0.66-1.8,2.25-1.8,4.35v89.21c0,2.09,0.65,3.67,1.8,4.34c1.15,0.66,2.85,0.44,4.66-0.62
	l29.72-17.14l47.53-27.45c1.82-1.05,2.86-2.41,2.86-3.74c0-1.32-1.04-2.68-2.86-3.73l-77.25-44.6
	C350.78,434.38,349.07,434.16,347.92,434.82z"/>
<path class="st5" d="M290.07,476.28c3.27-2.39,6.55-4.75,9.91-7.05c6.86-36.97,39.29-65.07,78.21-65.07c13.9,0,26.96,3.6,38.34,9.88
	c3.83-1.13,7.69-2.25,11.58-3.28c-14.22-9.76-31.41-15.49-49.92-15.49C331.93,395.27,293.9,430.98,290.07,476.28z"/>
<path class="st5" d="M347.92,434.82c-1.15,0.66-1.8,2.25-1.8,4.35v2.79c3.18-1.6,6.38-3.18,9.61-4.71l-3.15-1.81
	C350.78,434.38,349.07,434.16,347.92,434.82z"/>
<polygon class="st5" points="562.81,137.1 630.37,189.91 630.44,190.4 570.14,201.01 502.07,147.78 "/>
<polygon class="st5" points="312.39,181.15 380.45,234.38 319.71,245.06 251.64,191.82 "/>
<polygon class="st5" points="187.17,203.18 255.24,256.4 194.5,267.09 126.42,213.86 "/>
<polygon class="st5" points="437.59,159.12 505.67,212.35 444.92,223.03 376.86,169.81 "/>
<polygon class="st2" points="619.31,127.16 630.37,189.91 562.81,137.1 "/>
<polygon class="st2" points="502.07,147.78 570.14,201.01 505.67,212.35 437.59,159.12 "/>
<polygon class="st2" points="376.86,169.81 444.92,223.03 380.45,234.38 312.39,181.15 "/>
<polygon class="st2" points="251.64,191.82 319.71,245.06 255.24,256.4 187.17,203.18 "/>
<polygon class="st2" points="125.94,213.94 126.42,213.86 194.5,267.09 137.08,277.19 "/>
<g>
	<polygon class="st6" points="566.4,139.8 572.34,144.45 511.6,155.13 505.65,150.48 	"/>
	<polygon class="st6" points="441.17,161.83 447.14,166.48 386.39,177.16 380.44,172.51 	"/>
	<polygon class="st6" points="315.97,183.85 321.92,188.5 261.17,199.18 255.24,194.54 	"/>
	<polygon class="st7" points="190.76,205.88 196.69,210.52 135.95,221.21 130,216.56 	"/>
</g>
<polygon class="st5" points="190.36,267.45 145.35,327.72 145.35,327.72 194.22,331.68 252.02,267.45 "/>
<polygon class="st5" points="444.64,267.45 386.81,331.68 448.48,331.68 506.32,267.45 "/>
<polygon class="st5" points="571.76,267.45 513.96,331.68 575.62,331.68 633.44,267.45 "/>
<polygon class="st5" points="317.5,267.45 259.67,331.68 321.35,331.68 379.17,267.45 "/>
<polygon class="st2" points="252.02,267.45 194.22,331.68 259.67,331.68 317.5,267.45 "/>
<polygon class="st2" points="379.17,267.45 321.35,331.68 386.81,331.68 444.64,267.45 "/>
<polygon class="st2" points="506.32,267.45 448.48,331.68 513.96,331.68 571.76,267.45 "/>
<polygon class="st2" points="633.93,267.45 633.44,267.45 575.62,331.68 633.93,331.68 "/>
<g>
	<polygon class="st7" points="187.3,270.74 182.25,276.35 243.91,276.35 248.97,270.74 	"/>
	<polygon class="st6" points="314.44,270.74 309.39,276.35 371.06,276.35 376.11,270.74 	"/>
	<polygon class="st6" points="441.58,270.74 436.53,276.35 498.2,276.35 503.26,270.74 	"/>
	<polygon class="st6" points="568.71,270.74 563.65,276.35 625.33,276.35 630.38,270.74 	"/>
</g>
<g>
	<polygon class="st8" points="248.97,270.74 243.91,276.35 309.39,276.35 314.44,270.74 	"/>
	<polygon class="st8" points="376.11,270.74 371.06,276.35 436.53,276.35 441.58,270.74 	"/>
	<polygon class="st8" points="503.26,270.74 498.2,276.35 563.65,276.35 568.71,270.74 	"/>
	<polygon class="st8" points="625.33,276.35 633.93,276.35 633.93,270.74 630.38,270.74 	"/>
</g>
<path class="st8" d="M162.19,193.4l-15.18,1.03c-13.05,0.89-23.66,13.25-23.66,27.54v84.9c0,14.7,10.93,26.66,24.39,26.66h77.68
	c13.45,0,24.4-11.96,24.4-26.66v-7.96c0-10.33-3.89-24.66-9.03-33.33l-0.56-0.94l-48.8-56.2l1.26,1.75
	C186.55,199.84,173.45,192.62,162.19,193.4z"/>
<path class="st2" d="M147.71,206.53c-7.29,0.5-13.29,7.45-13.29,15.44v84.9c0,8,6.01,14.54,13.32,14.54h77.68
	c7.32,0,13.31-6.54,13.31-14.54v-7.96c0-8-3.26-20.03-7.24-26.74l-48.09-55.39c-3.99-6.72-13.21-11.78-20.52-11.3L147.71,206.53z"/>
<g>
	<polygon class="st8" points="619.89,130.39 620.87,135.91 572.34,144.45 566.4,139.8 	"/>
	<polygon class="st8" points="505.65,150.48 511.6,155.13 447.14,166.48 441.17,161.83 	"/>
	<polygon class="st8" points="380.44,172.51 386.39,177.16 321.92,188.5 315.97,183.85 	"/>
	<polygon class="st8" points="255.24,194.54 261.17,199.18 196.69,210.52 190.76,205.88 	"/>
</g>
</svg>
